<?xml version="1.0" encoding="utf-8"?>
<!-- Generator: Adobe Illustrator 24.1.1, SVG Export Plug-In . SVG Version: 6.00 Build 0)  -->
<svg version="1.1" xmlns="http://www.w3.org/2000/svg" xmlns:xlink="http://www.w3.org/1999/xlink" x="0px" y="0px"
    viewBox="0 0 113.39 113.39" style="enable-background:new 0 0 113.39 113.39;" xml:space="preserve">
<style type="text/css">
    .camera_st0{fill:none;stroke:#000000;stroke-width:2;stroke-miterlimit:10;}
    .camera_st1{fill:#DB191A;}
    .camera_st2{fill:none;stroke:#FFFFFF;stroke-width:0.3;stroke-linecap:round;stroke-miterlimit:10;}
    .camera_st3{fill:none;stroke:#FFFFFF;stroke-width:0.25;stroke-linecap:round;stroke-linejoin:round;stroke-miterlimit:10;}
    .camera_st4{fill:#BE1622;stroke:#000000;stroke-linecap:round;stroke-linejoin:round;stroke-miterlimit:10;}
    .camera_st5{fill:#FFFFFF;stroke:#000000;stroke-width:0.25;stroke-linecap:round;stroke-linejoin:round;stroke-miterlimit:10;}
    .camera_st6{fill:none;stroke:#FFFFFF;stroke-width:0.1;stroke-linecap:round;stroke-linejoin:round;stroke-miterlimit:10;}
    .camera_st7{stroke:#000000;stroke-miterlimit:10;}
    .camera_st8{stroke:#FFFFFF;stroke-width:0.5;stroke-linecap:round;stroke-linejoin:round;stroke-miterlimit:10;}
</style>
<g id="cameraOthers">
    <rect id="CameraLightBox" x="26.64" y="22.77" class="camera_st0" width="23.23" height="12.21"/>
    <path id="cameraHeart" class="camera_st1" d="M38.26,32.66c0,0-4.87-2.8-4.34-5.44c0.01-0.16,0.08-1.02,0.8-1.62c0.48-0.4,1-0.48,1.21-0.5
        c0.19,0.01,0.41,0.04,0.65,0.12c0.94,0.29,1.47,1,1.68,1.32c0,0,1.02-1.46,2.46-1.46c0.23,0.03,0.71,0.14,1.16,0.53
        c0.75,0.65,0.78,1.57,0.79,1.73C42.66,27.34,43.12,29.77,38.26,32.66z"/>
    <path id="cameraHeartWhite2" class="camera_st2" d="M35.4,26.15c0,0-0.55,0.38-0.49,0.88"/>
    <circle id="cameraHeartWhite1" class="camera_st3" cx="34.88" cy="27.59" r="0.02"/>
    <path id="cameraBox" class="camera_st0" d="M22.36,35.77c0,0-4.04,0.11-4.04,3.96s0,44.53,0,44.53s0.51,3.38,3.87,3.47h70.7
        c0,0,3.47-0.43,3.43-3.47V40.11c0,0-0.13-4.15-3.51-4.13L22.36,35.77z"/>
    <circle id="cameraFaceOutline" class="camera_st0" cx="56.69" cy="61.74" r="16.98"/>
    <path id="cameraMouse" class="camera_st4" d="M48.87,65.49c5.03,0,10.06,0,15.09,0c-1.06,3.18-3.97,5.37-7.25,5.49
        C53.22,71.11,50,68.87,48.87,65.49z"/>
    <path id="cameraTeeth" class="camera_st5" d="M54.64,70.26v-0.81h3.74v0.81C58.38,70.26,56.6,70.74,54.64,70.26z"/>
    <path id="cameraSYsign" class="camera_st6" d="M90,87.23c0,0-0.58-0.3-0.58,0.23c0,0,0.12,0.34,0.53,0.3c0,0,0.4-0.05,0.22,0.35
        c0,0-0.69,0.45-1.05-0.12c0,0-0.08-0.15,0.09-0.06c0.16,0.1,1.52,0.44,1.6-0.13c0,0-0.13-0.25-0.36-0.02c0,0-0.27,0.79,0.43,0.44
        c0,0,0.24-0.16,0.32-0.36c0,0-0.1-0.37-0.16,0c0,0-0.11,0.46,0.28,0.36c0,0,0.4-0.14,0.06-0.48c0,0-0.37-0.21-0.29,0.14
        c0,0,0.34,0.57,0.56,0.31c0,0,0.58-0.68,0.24-1.23c0,0-0.12-0.28-0.18,0c0,0,0.02,1.53,0.28,1.24c0,0,0.39-0.25,0.27-0.72
        c0,0-0.09-0.14-0.09,0.09c0,0,0.04,0.53,0.22,0.31c0,0,0.2-0.08,0.13-0.39c0,0,0.59,1.21-0.21,1.1c0,0-0.33-0.03,0.04-0.25
        c0,0,0.49-0.2,0.51-0.84c0,0-0.1-0.13-0.09,0.11c0,0-0.01,0.45,0.17,0.35c0,0,0.25,0.06,0.25-0.5c0,0-0.11-0.2-0.1-0.02
        c0,0,0.05,0.68,0.27,0.53"/>
</g>
<g id="cameraEyes">
    <circle id="cameraEyesRightBlack" class="camera_st7" cx="49.92" cy="57.42" r="1.79">
    </circle>
    <circle id="cameraEyesLeftBlack" class="camera_st7" cx="63.06" cy="57.42" r="1.79"/>
    <path id="cameraEyesRightWhite" class="camera_st8" d="M49.49,57.03c0,0-0.26,0.01-0.26,0.37"/>
    <path id="cameraEyesLeftWhite" class="camera_st8" d="M62.53,56.84c0,0-0.26,0.01-0.26,0.37"/>
</g>
</svg>