<?xml version="1.0" encoding="UTF-8"?>
<svg id="_레이어_2" data-name="레이어 2" xmlns="http://www.w3.org/2000/svg" viewBox="0 0 53.22 30.57">
  <defs>
    <style>
      .cls-1 {
        fill: #622716;
        stroke: #040000;
        stroke-miterlimit: 10;
        stroke-width: .1px;
      }

      .cls-2 {
        fill: #fdfdfe;
      }

      .cls-2, .cls-3, .cls-4, .cls-5, .cls-6, .cls-7, .cls-8, .cls-9, .cls-10, .cls-11 {
        stroke-width: 0px;
      }

      .cls-12 {
        fill: none;
        stroke: #502b31;
        stroke-linecap: round;
        stroke-linejoin: round;
        stroke-width: .5px;
      }

      .cls-3 {
        fill: #231815;
      }

      .cls-4 {
        fill: #060404;
      }

      .cls-5 {
        fill: #fdfbfb;
      }

      .cls-6 {
        fill: #040000;
      }

      .cls-7 {
        fill: #d7838b;
      }

      .cls-8 {
        fill: #200204;
      }

      .cls-9 {
        fill: #fff;
      }

      .cls-10 {
        fill: #a69c7d;
      }

      .cls-11 {
        fill: #bd874d;
      }
    </style>
  </defs>
  <g id="_좋아요_하트" data-name="좋아요_하트">
    <g>
      <path class="cls-7" d="M35.33.25c-4.99,0-8.67,5.59-8.67,5.59,0,0-3.68-5.59-8.67-5.59s-8.54,4.73-8.15,9.17c.39,4.44,1.93,8.11,16.82,20.89,14.89-12.78,16.43-16.45,16.82-20.89.39-4.44-3.16-9.17-8.15-9.17Z"/>
      <path class="cls-12" d="M35.33.25c-4.99,0-8.67,5.59-8.67,5.59,0,0-3.68-5.59-8.67-5.59s-8.54,4.73-8.15,9.17c.39,4.44,1.93,8.11,16.82,20.89,14.89-12.78,16.43-16.45,16.82-20.89.39-4.44-3.16-9.17-8.15-9.17Z"/>
    </g>
  </g>
  <g id="_커뮤니티" data-name="커뮤니티">
    <g>
      <path class="cls-11" d="M30.24,9.44c2.68-2.28,6.71-3.18,10.31-2.27,3.65.93,7.99,3.17,9.51,6.52s-.12,8.15-3,10.27c-1.84,1.35-4.28,1.75-6.64,1.9-2.43.16-4.95.09-7.29-.74s-4.49-2.51-5.37-4.75c-.81-2.09-.45-4.39.35-6.39.72-1.8,1.77-3.46,3.1-4.88"/>
      <path class="cls-3" d="M30.41,9.61c3.39-2.79,7.86-3.09,11.88-1.65,3.56,1.27,7.76,3.82,8.07,8s-2.33,8.03-6.33,9.11c-2.26.61-4.77.72-7.1.55s-4.74-.83-6.63-2.33c-4.78-3.8-2.4-10.21,1.07-14.02.22-.24-.14-.59-.35-.35-3.1,3.4-5.72,9.12-2.51,13.29s9.06,4.38,13.76,3.73c2.24-.31,4.45-1.05,6.02-2.76,1.35-1.47,2.22-3.39,2.49-5.36.64-4.56-2.63-7.73-6.47-9.55-4.67-2.21-10.09-2.43-14.26,1-.25.2.11.56.35.35h0Z"/>
    </g>
    <g>
      <path class="cls-11" d="M33.57,7.16c-2.7-.93-4.84-1.7-7.78-.94-.12.03-.24.07-.33.14-.24.21-.07.54.11.76,1.22,1.52,1.98,3.77,3.2,5.29.99-2,2.39-3.75,4.65-4.62.16-.06.33-.13.44-.25s.13-.32,0-.4"/>
      <path class="cls-3" d="M33.63,6.92c-1.37-.48-2.76-.97-4.21-1.17-.7-.09-1.4-.12-2.11-.05-.32.03-.65.08-.97.14s-.75.1-1.02.31c-.41.32-.2.82.06,1.16.42.55.77,1.14,1.11,1.74.66,1.21,1.24,2.47,2.09,3.55.1.12.33.08.39-.05.63-1.26,1.43-2.45,2.52-3.35.57-.47,1.22-.85,1.91-1.13.41-.16,1.13-.59.61-1.09-.23-.22-.59.13-.35.35.05.05-.9.47-1,.52-.27.13-.53.28-.78.44-.48.31-.93.68-1.34,1.09-.84.85-1.48,1.86-2.02,2.92l.39-.05c-.74-.94-1.26-2.04-1.82-3.09-.28-.52-.56-1.04-.88-1.53-.13-.2-.27-.39-.42-.58-.05-.07-.24-.27-.22-.38.03-.22.34-.24.49-.27,1.25-.29,2.54-.31,3.81-.07s2.42.66,3.6,1.07c.3.11.44-.38.13-.48h0Z"/>
    </g>
    <g>
      <path class="cls-11" d="M44.78,8.65c2.67-1.02,4.79-1.85,7.74-1.18.12.03.24.06.33.13.24.2.09.54-.09.77-1.17,1.56-1.86,3.83-3.03,5.39-1.06-1.97-2.5-3.68-4.79-4.48-.16-.06-.33-.11-.45-.23s-.14-.32-.01-.4"/>
      <path class="cls-3" d="M44.85,8.89c2.4-.91,4.78-1.76,7.37-1.23.13.03.46.05.51.21.03.1-.12.29-.18.37-.16.23-.32.46-.47.7-.31.5-.57,1.03-.83,1.56-.53,1.07-1.02,2.17-1.73,3.13h.43c-.56-1.04-1.24-2.03-2.1-2.85-.42-.4-.89-.77-1.4-1.07-.25-.15-.51-.29-.78-.41-.1-.05-1.05-.45-1.01-.48.23-.23-.13-.58-.35-.35-.47.48.15.9.57,1.05.72.27,1.39.62,2,1.08,1.13.87,1.97,2.04,2.64,3.28.1.18.33.14.43,0,.84-1.13,1.37-2.44,2.01-3.69.31-.6.65-1.15,1.03-1.7.26-.38.39-.91-.1-1.17-.55-.29-1.4-.31-2.01-.34-.67-.03-1.33.02-1.99.12-1.44.24-2.81.78-4.16,1.29-.3.11-.17.6.13.48h0Z"/>
    </g>
    <ellipse class="cls-3" cx="33.86" cy="14.85" rx="1.97" ry="1.41" transform="translate(8.99 42.22) rotate(-71.42)"/>
    <ellipse class="cls-3" cx="43.57" cy="14.99" rx="1.41" ry="1.97" transform="translate(-2.33 10.93) rotate(-13.93)"/>
    <ellipse class="cls-10" cx="33.6" cy="14.97" rx="1.74" ry="1.14" transform="translate(12.11 44.83) rotate(-78.27)"/>
    <circle class="cls-9" cx="33.69" cy="13.84" r=".12"/>
    <circle class="cls-9" cx="34.05" cy="14.16" r=".17"/>
    <circle class="cls-8" cx="33.42" cy="14.98" r="1.01"/>
    <ellipse class="cls-10" cx="43.37" cy="15.18" rx="1.14" ry="1.74" transform="translate(-2.57 15.86) rotate(-20.13)"/>
    <circle class="cls-9" cx="43.23" cy="14.05" r=".12"/>
    <circle class="cls-9" cx="43.66" cy="14.36" r=".17"/>
    <circle class="cls-8" cx="43.25" cy="15.22" r="1.01"/>
    <path class="cls-6" d="M34.12,20.46c.67.94,2.02,1.09,3.03.67s1.75-1.45,1.82-2.59c.02-.32-.48-.32-.5,0-.05.91-.61,1.74-1.45,2.11-.78.34-1.93.31-2.47-.44-.19-.26-.62-.01-.43.25h0Z"/>
    <path class="cls-6" d="M38.69,19.6c.21.41.46.82.9,1s1.06.16,1.55.13c.95-.07,1.94-.45,2.41-1.33.15-.28-.28-.54-.43-.25-.39.72-1.2,1.03-1.98,1.08-.4.03-.86.05-1.25-.05s-.59-.48-.77-.83c-.15-.29-.58-.03-.43.25h0Z"/>
    <circle class="cls-1" cx="38.76" cy="17.24" r=".92"/>
    <g>
      <path class="cls-9" d="M6.64,11.79c2.24-2.68,5.9-4.22,9.38-3.91,3.53.31,7.06,2.51,8.88,5.55s1.66,7.29-.8,9.84c-1.56,1.63-3.8,2.42-5.99,2.95-2.26.55-4.62.9-6.91.47s-4.5-1.72-5.59-3.78c-1.01-1.91-.94-4.22-.43-6.32.46-1.88,1.24-3.68,2.32-5.3"/>
      <path class="cls-3" d="M6.82,11.97c2.65-3.08,6.92-4.58,10.89-3.54,3.72.97,7.22,3.92,8,7.8.38,1.88.14,3.92-.83,5.59-1.03,1.79-2.84,2.88-4.75,3.56-3.89,1.38-8.96,2.19-12.49-.49-4.33-3.29-2.41-9.63.08-13.46.18-.27-.26-.52-.43-.25-2.31,3.54-4.19,9.17-1.21,12.89s8.61,3.38,12.86,2.21c2.03-.56,4.11-1.41,5.54-3.03,1.27-1.44,1.9-3.36,1.91-5.27.02-4.25-3.03-7.78-6.8-9.42-4.55-1.98-9.89-.68-13.12,3.06-.21.24.14.6.35.35h0Z"/>
    </g>
    <g>
      <path class="cls-2" d="M8.63,10.17c-.4-1.12-1.61-1.83-2.8-1.85s-2.33.58-3.16,1.43-1.39,1.93-1.83,3.03c-.46,1.16-.8,2.44-.5,3.65.09.36.23.7.38,1.03.4.91.89,1.82,1.7,2.39s2.02.68,2.75,0c.31-.29.5-.68.65-1.08.18-.49.32-.99.39-1.51.09-.65.1-1.31.21-1.96.21-1.21.79-2.35,1.65-3.22.26-.27.55-.52.73-.85s.19-.78-.08-1.05"/>
      <path class="cls-3" d="M8.87,10.1c-.8-2-3.16-2.46-4.96-1.57C1.79,9.58.5,12.19.09,14.42c-.22,1.2,0,2.25.49,3.34.45.99,1.06,2.02,2.08,2.51.8.39,1.83.43,2.56-.13.87-.68,1.15-2.05,1.27-3.08.1-.8.11-1.61.34-2.39.2-.67.53-1.31.96-1.86.6-.78,1.97-1.69,1.11-2.78-.2-.25-.55.1-.35.35.45.57-.3,1.18-.65,1.54-.29.3-.55.63-.78.98-.46.71-.78,1.52-.93,2.35-.27,1.55-.09,5.06-2.52,4.81-1.05-.11-1.78-.93-2.27-1.8s-.92-1.83-.91-2.85c.01-1.08.4-2.14.83-3.11.38-.86.87-1.7,1.54-2.37.78-.79,1.85-1.38,2.99-1.35s2.15.64,2.55,1.67c.12.3.6.17.48-.13h0Z"/>
    </g>
    <g>
      <path class="cls-9" d="M22.12,10.18c.38-1.13,1.56-1.87,2.75-1.92s2.34.52,3.2,1.35,1.44,1.89,1.9,2.99c.49,1.15.86,2.42.59,3.64-.08.36-.21.7-.35,1.04-.38.91-.85,1.84-1.65,2.43s-2,.73-2.75.07c-.32-.28-.52-.67-.68-1.06-.2-.48-.34-.99-.43-1.5-.11-.65-.13-1.31-.26-1.95-.24-1.2-.85-2.33-1.73-3.18-.27-.26-.57-.5-.75-.83s-.21-.78.05-1.05"/>
      <path class="cls-3" d="M22.37,10.24c.75-2.03,3.28-2.06,4.85-1.01s2.68,3.25,3.08,5.12c.24,1.12.02,2.11-.44,3.14-.38.86-.89,1.77-1.76,2.21-.99.5-2.07.24-2.58-.78s-.58-2.12-.73-3.22c-.13-.92-.42-1.8-.91-2.59-.25-.41-.55-.79-.89-1.13-.41-.41-1.2-1-.72-1.64.19-.26-.24-.51-.43-.25-.72.97.4,1.8.99,2.45.92,1.02,1.36,2.26,1.52,3.6.22,1.9.8,4.9,3.4,4.23,1.04-.26,1.77-1.12,2.26-2.03.55-1.02.99-2.15.89-3.33s-.58-2.4-1.13-3.47c-.52-1.01-1.2-1.95-2.13-2.62-1.86-1.34-4.84-1.22-5.74,1.2-.11.3.37.43.48.13h0Z"/>
    </g>
    <ellipse class="cls-3" cx="10.05" cy="16.5" rx="1.97" ry="1.41" transform="translate(-8.8 20.73) rotate(-71.3)"/>
    <ellipse class="cls-5" cx="10.14" cy="16.53" rx="1.9" ry="1.25" transform="translate(-8.77 20.84) rotate(-71.3)"/>
    <ellipse class="cls-4" cx="10.24" cy="16.57" rx="1.74" ry="1.14" transform="translate(-8.74 20.95) rotate(-71.3)"/>
    <circle class="cls-9" cx="10.29" cy="15.41" r=".12"/>
    <circle class="cls-9" cx="9.98" cy="15.68" r=".17"/>
    <circle class="cls-8" cx="10.26" cy="16.77" r="1.01"/>
    <circle class="cls-6" cx="15" cy="18.74" r="1.29"/>
    <ellipse class="cls-3" cx="20.07" cy="16.79" rx="1.41" ry="1.97" transform="translate(-3.82 6.12) rotate(-15.85)"/>
    <ellipse class="cls-5" cx="20.16" cy="16.76" rx="1.25" ry="1.9" transform="translate(-3.81 6.14) rotate(-15.85)"/>
    <ellipse class="cls-4" cx="20.26" cy="16.73" rx="1.14" ry="1.74" transform="translate(-3.8 6.17) rotate(-15.85)"/>
    <circle class="cls-9" cx="19.65" cy="15.75" r=".12"/>
    <circle class="cls-9" cx="19.55" cy="16.15" r=".17"/>
    <circle class="cls-8" cx="20.39" cy="16.89" r="1.01"/>
    <path class="cls-6" d="M11.92,21.05c.65,1.37,2.34,2.15,3.8,2.13s2.78-.91,3.07-2.34c.06-.31-.42-.45-.48-.13-.25,1.26-1.47,1.99-2.7,1.97s-2.7-.69-3.26-1.88c-.14-.29-.57-.04-.43.25h0Z"/>
  </g>
</svg>